<svg xmlns="http://www.w3.org/2000/svg" viewBox="0 0 330.52 144.71"><defs><style>.cls-1{fill:#231f20;}</style></defs><title>logo</title><g id="Layer_2" data-name="Layer 2"><g id="Layer_1-2" data-name="Layer 1"><rect class="cls-1" x="50.62" width="13.94" height="125.42"/><rect class="cls-1" x="78.49" y="55.74" width="13.94" height="69.68"/><rect class="cls-1" x="106.36" width="13.94" height="125.42"/><rect class="cls-1" x="217.85" width="13.94" height="125.42"/><rect class="cls-1" x="245.72" width="13.94" height="69.68"/><rect class="cls-1" x="273.59" width="13.94" height="125.42"/><rect class="cls-1" x="22.75" y="13.94" width="13.94" height="13.94"/><rect class="cls-1" x="176.04" y="27.87" width="13.94" height="13.94"/><rect class="cls-1" x="8.82" width="13.94" height="69.68"/><rect class="cls-1" x="134.24" width="13.94" height="69.68"/><rect class="cls-1" x="189.98" width="13.94" height="69.68"/><rect class="cls-1" x="162.11" width="13.94" height="27.87"/><path class="cls-1" d="M9.05,103.88c-1.46,2.92-3.14,6.43-5.74,8.51l.55-.32A1.8,1.8,0,0,1,1,111c-.33-1.33.59-2.35,1.56-3.08l-.65.38c3-1.7,6.39-2.82,9.48-4.34,2.94-1.46,5.84-3,8.71-4.6,2.4-1.33,4.79-2.67,7.17-4a8.75,8.75,0,0,0,2.93-2.38l-.86.5c.2-.15.28-.11.25.11l.87-.5h-.12c-.3,0-.57.49-.87.5h.12a4.74,4.74,0,0,0,.87-.5c-.05-.33-.82.17-1,.34a28.67,28.67,0,0,1-2.64,2.19c-2,1.3-4.24,2.4-6.35,3.57-3.52,1.94-7.08,3.82-10.72,5.53-2.2,1-4.53,1.84-6.68,3a7.83,7.83,0,0,0-2.19,1.5c-1.5,1.69-.55,4.53,1.93,3.58,3.58-1.38,5.57-6.19,7.13-9.32-.12.24-.74.25-.86.5Z" transform="translate(-0.13)"/><path class="cls-1" d="M17.36,97.81A2.28,2.28,0,0,0,17,96.09a8.75,8.75,0,0,0-.87.5q1,13.77,2.37,27.51l.87-.5-.41-1.53c0,.08-.89.41-.86.5l.4,1.53c0-.09.88-.38.87-.5Q18,109.86,17,96.09l-.87.5a2.28,2.28,0,0,1,.39,1.72c0-.19.85-.3.87-.5Z" transform="translate(-0.13)"/><path class="cls-1" d="M20,105l-.48-1.21c0,.06-.87.41-.86.5l2,19.75c0-.14.86-.34.87-.5A44,44,0,0,1,23,112l-.87.5a18.79,18.79,0,0,1,1,5.67c.1,1.35.68,3.79.21,5.05l.86-.5c-.13,0-.14-.09-.05-.17-.17.25-.69.25-.87.5-.09.08-.07.13.06.17a4.25,4.25,0,0,0,.86-.5c.49-1.32-.11-3.68-.2-5.05A19.16,19.16,0,0,0,23,112c0,.06-.83.39-.87.5a44,44,0,0,0-1.57,11.54l.87-.5-2-19.75-.86.5.48,1.21s.88-.45.86-.5Z" transform="translate(-0.13)"/><path class="cls-1" d="M25.83,116.33c.12,5.41,7.21,2.33,9.13-.24,1.67-2.25,2.4-7.23-1.28-8-1.53-.32-3.09.48-4.38,1.24-5.08,3-6.3,10-1.63,14,3.48,3,8.06,2.21,11.54-.21-.27.19-.59.31-.86.5l-.62.43.74-.43c-8.11,4.56-17-5.45-10.88-12.71,1.39-1.65,4.16-3.26,6.27-1.92,1.55,1,1.84,3.1,1.5,4.78a6.39,6.39,0,0,1-4.08,4.86c-2.17.69-4.53-.41-4.59-2.81,0,.15-.86.33-.86.5Z" transform="translate(-0.13)"/><path class="cls-1" d="M130.38,113.57c-1.19-3-4.7-1.27-6.34.32-3.49,3.4-5.58,12.32,2.16,10.17,2.4-.66,5.35-2.5,5.54-5.22.11-1.63-1.3-4.14-3.26-3.66-.25.06-1,.52-.81.72a5.65,5.65,0,0,0,.87-.5l.07-.1c-.19.24-.67.26-.87.5l-.07.1.87-.5c-.18-.07-.18-.16,0-.26l-.87.5c1.67-.22,3,1.54,3.19,3,.19,1.92-1.08,3.45-2.54,4.48l.85-.49c-2.62,1.42-7.31,2.38-7.59-1.8-.22-3.21,2.07-6.89,4.71-8.55l-.86.49c1.62-.7,3.37-.55,4.08,1.26,0,0,.88-.44.86-.5Z" transform="translate(-0.13)"/><path class="cls-1" d="M131,109.13c-1.2.33-1.86.76-1.91,2.13-.12,4.08,2.4,8.92,4.47,12.28l.87-.5c-2.81-2.74-6.57-9.7-1.87-12.55l-.81.46c4.06-1.65,5.19,2.92,3,5.59-.19.23-2.25,1.92-2.23,2s2.13.4,2.25.44a10.23,10.23,0,0,1,4.9,3.51,6.46,6.46,0,0,0,.87-.5l0-.71c0,.15-.87.33-.87.5l0,.71.87-.5a10.28,10.28,0,0,0-4.9-3.51,9.79,9.79,0,0,0-1.49-.36c-1,.08-1-.11-.17-.55.35-.58,1.18-1,1.63-1.55,2.18-2.65,1-7.33-3-5.58-5.68,2.46-2.26,10,1,13.08,0,0,.85-.53.87-.5a32,32,0,0,1-3.27-7c-.58-1.8-2-5.15-.75-6.8l-.87.5.59-.16c.32-.08.56-.41.87-.5Z" transform="translate(-0.13)"/><path class="cls-1" d="M138.8,117.36c-1.06,1,.52,0,.89-.14l.54-.31a8,8,0,0,0,3.13-3.25,9.83,9.83,0,0,0,.21-7.78c-.73-2-2.44-5.82-5.14-4.66s-1.68,4.66-1.19,7A70.17,70.17,0,0,0,143.7,126l.87-.5a1.07,1.07,0,0,1-1.24-.38c-.06-.06-.81.56-.86.5a1.05,1.05,0,0,0,1.23.38c.09,0,.86-.5.87-.5A70.48,70.48,0,0,1,139.45,113c-.61-2-1.11-4.08-1.52-6.15-.38-1.91-1.08-4.11.51-5.62l-.86.5c3.34-1.59,5.45,4.83,5.74,7.15a9.12,9.12,0,0,1-.53,4.63,8.21,8.21,0,0,1-1.06,1.87c-.35.46-3.56,2.93-2.06,1.49-.24.23-.63.28-.87.5Z" transform="translate(-0.13)"/><path class="cls-1" d="M148.93,116.16c.25-2.64-2.56-2.84-4.29-1.82-2.17,1.28-2.89,3.93-2.46,6.35a3.34,3.34,0,0,0,5.09,2.42,4.25,4.25,0,0,0,2.4-4.88c0,.09-.89.39-.87.5a4.06,4.06,0,0,1-1.79,4.52l.85-.49c-5.38,2.29-6.25-6.17-2.78-8.66l-.85.49c1.73-.9,4-.18,3.84,2.07,0-.18.85-.3.86-.5Z" transform="translate(-0.13)"/><path class="cls-1" d="M144.09,101.13q3.56,12.35,6.86,24.77c0-.09.88-.39.86-.5l-.23-1.52c0,.11-.89.37-.87.5l.24,1.52.86-.5Q148.51,113,145,100.63c0,.07-.89.41-.86.5Z" transform="translate(-0.13)"/><path class="cls-1" d="M169,115.28c-1.38-1.73-3.62-1.09-5.18,0-2.22,1.56-4.14,8-.6,9.08,1.82.57,3.85-.55,5.29-1.62a5.59,5.59,0,0,0,2.55-4.74,3.57,3.57,0,0,0-3.2-3.31c-.28,0-.6.52-.87.5A3.61,3.61,0,0,1,170.2,119a5.54,5.54,0,0,1-4.1,4.94c-5.52,1.2-4.41-7.3-1.19-9.24l-.81.46a3.21,3.21,0,0,1,4,.67s.84-.54.86-.5Z" transform="translate(-0.13)"/><path class="cls-1" d="M170.92,113.41c-.27.11-1.07.38-1.21.64-.73,1.35,1.9-.23,2.12-.37a7.53,7.53,0,0,0,3.54-6.12c0-2.08-1.41-6.78-4.28-5.9C167,102.89,168.49,111,169,114c1.28,7.94,4.78,15.31,6.24,23.22l.86-.5-.92-2.16s-.88.46-.86.5l.92,2.16c0-.06.88-.42.86-.5-1.15-6.24-3.54-12.12-5.15-18.23a42.73,42.73,0,0,1-1.52-9.11c-.09-2.32-.43-6.19,1.73-7.71l-.87.5c2.73-.66,4.16,3.44,4.23,5.53a7.55,7.55,0,0,1-3.4,6.43l.43-.25-.61.35.43-.25c-.64.3-1,.37-.77-.4l-.86.5.34-.14c.31-.13.56-.37.87-.5Z" transform="translate(-0.13)"/><path class="cls-1" d="M176.56,126.72c-1-.69-2,0-2.93.53-1.55.92-3,2-4.51,3l.85-.49.45-.48c-.22.23-.65.26-.87.5l-.45.48a4.47,4.47,0,0,1,.85-.49l3.16-2.14c.81-.54,1.66-1.08,2.58-.43.12.09.76-.57.87-.5Z" transform="translate(-0.13)"/><path class="cls-1" d="M184.33,114.08a1,1,0,0,0-.77-.51,4.51,4.51,0,0,0-.86.5c.17,2.42.61,10.4,4.76,8.16,2.73-1.47,4.12-5.44,2.16-8a7.14,7.14,0,0,0-.87.5c.28,5.66.74,11.16,2.63,16.55,1.4,4,3.23,10.15-1.47,12.88l.55-.31c-1.82.74-4.07.5-4.69-1.63,0,.07-.89.41-.86.5.69,2.39,3.27,2.37,5.12,1.38a7,7,0,0,0,3.63-4.68c.93-3.93-1.33-7.85-2.36-11.53-1.23-4.45-1.45-9.08-1.68-13.66l-.87.5c1.85,2.43.72,6-1.61,7.7l.87-.5c-4,1.59-4.29-6.08-4.45-8.34l-.86.5a1,1,0,0,1,.77.51c.05.06.82-.55.86-.5Z" transform="translate(-0.13)"/><path class="cls-1" d="M196,116.1c.14-2.57-3-1.47-4.1-.44a4.75,4.75,0,0,0-1.3,4.71,2.46,2.46,0,0,0,3.54,1.35,4.14,4.14,0,0,0,2.41-5.09c-.4-1.29-1.37-1.85-2.57-1.24-.64.33-1.3.69-1.22,1.52,0-.13.88-.36.87-.5a1.08,1.08,0,0,1,.48-1.09l-.85.49c1.51-.78,2.43.76,2.57,2.09a3.86,3.86,0,0,1-1.68,3.82l.85-.49a2.48,2.48,0,0,1-3.59-1.54,4.76,4.76,0,0,1,1.93-5l-.85.49c1.14-.53,2.73-.1,2.64,1.39,0-.18.86-.32.87-.5Z" transform="translate(-0.13)"/><path class="cls-1" d="M197.53,113.56c.08-.3,0-.4-.26-.5a3.06,3.06,0,0,0-.87.5c-.86,1.89-1.17,4.42,0,6.27a2.1,2.1,0,0,0,3.09.8c2.22-1.21,3.12-5.28.86-6.9a7.31,7.31,0,0,0-.87.5l.25.61s.89-.45.87-.5l-.25-.61-.87.5c2,1.39,1.54,5.11-.21,6.52l.74-.43c-1.58.89-2.84-.79-3.24-2.13a7.39,7.39,0,0,1,.5-5.13l-.87.5c.3.1.35.2.26.5.07-.22.81-.27.87-.5Z" transform="translate(-0.13)"/><path class="cls-1" d="M203.22,113l-.59-.44a5.77,5.77,0,0,0-.87.5,95.74,95.74,0,0,0,2,9.93l.86-.5-1.48-5.7c-.35-1.31-1-2.76,0-4l-.74.43c1.61-.91,3.33.75,3.75,2.21a3.54,3.54,0,0,1-1.51,3.89l.85-.5-.52.07-.87.5c1.22-.47,3.08,2,3.9,2.79a7.57,7.57,0,0,0,4.48,2.26c.28,0,.6-.53.87-.5a7.57,7.57,0,0,1-4.48-2.26c-.82-.74-2.68-3.26-3.9-2.79a4.43,4.43,0,0,0-.87.5l0,.19h0a8.09,8.09,0,0,0,1.83-1.1c2-1.78,1.13-6.59-2.13-6a3.6,3.6,0,0,0-1.56.78c-.92,1-.36,2.41-.08,3.52.52,2,1.07,4.09,1.61,6.14,0-.08.88-.41.86-.5a93.15,93.15,0,0,1-2-9.93l-.87.5.6.44c.11.08.76-.57.86-.5Z" transform="translate(-0.13)"/><path class="cls-1" d="M295.31,113.84c-.95-.91-2.12-.35-3,.32-2.18,1.58-3.4,5.5-2.27,8,1.3,2.86,4.89,1.72,7,.62,1.16-.6,2.4-1.3,2.23-2.8,0,.12-.88.36-.86.5a2.13,2.13,0,0,1-1,2.08l.54-.32c-2.19,1.26-6,2.25-7.17-.83-1-2.62.29-6,2.34-7.74l-.85.49c.89-.44,1.48-.49,2.17.18.08.07.81-.56.87-.5Z" transform="translate(-0.13)"/><path class="cls-1" d="M295.07,108.34a.93.93,0,0,1-.37-1.64l-.85.49a1,1,0,0,1,1.46,1.17,2.82,2.82,0,0,1-.33.51l.45-.26-.12,0c-.09,0-.15,0-.23-.08-.36-.27-.18-.77.12-1l-.81.47a1.74,1.74,0,0,1,.84-.18c.3,0,.57-.49.87-.5a2.93,2.93,0,0,0-1.46.52c-.36.21-.79.49-.57,1s.72.16,1,0a2,2,0,0,0,1-.92,1,1,0,0,0-.57-1.28,1.37,1.37,0,0,0-1.2.25c-.36.21-.81.39-.9.84a.94.94,0,0,0,.73,1.12c.09,0,.36-.2.43-.24s.35-.27.43-.26Z" transform="translate(-0.13)"/><path class="cls-1" d="M298.82,111.94c-1,1.4-.55,4.46-.62,6.16-.09,2-.59,4.33.44,6.13,0,0,.81-.43.87-.5,2-2.82,1.58-6.61,3.88-9.23l-.86.5a15.65,15.65,0,0,1,.73,4.71c0,1.1-.41,2.34.43,3.21.06.07.81-.55.87-.5-.84-.87-.44-2.11-.43-3.21a15.66,15.66,0,0,0-.74-4.71s-.79.42-.86.5c-2.31,2.62-1.92,6.41-3.89,9.23l.87-.5c-1-1.8-.53-4.14-.45-6.13.07-1.7-.41-4.76.63-6.16-.18.24-.69.25-.87.5Z" transform="translate(-0.13)"/><path class="cls-1" d="M310.86,117.83c.53-1.45-.81-2.51-2.2-2.12a4.89,4.89,0,0,0-1.27.64c-2.05,1.31-2.93,4.76-2.82,7.09s1.9,3.72,4.12,2.49,3.07-3.78,3.55-6.2c0,.21-.82.28-.86.5-.43,2.15-1.12,4.62-3.05,5.9l.85-.49c-5.54,2.38-3.62-7.67-1.24-9.6l-.85.49c1.43-.77,3.61-.14,2.9,1.8.09-.24.78-.26.87-.5Z" transform="translate(-0.13)"/><path class="cls-1" d="M312.35,102.93c-2.92-1-1.9,5.38-1.88,6.51l.28,20.59.87-.5-.08-1c0,.13-.88.35-.87.5l.08,1c0-.14.87-.34.87-.5l-.19-13.72-.1-6.87c0-1.36-.82-5.33.52-6.13l-.81.47.44.15c.21.08.67-.57.87-.5Z" transform="translate(-0.13)"/><path class="cls-1" d="M328.82,106.09c-.79-3.32-5.9,1-7,1.94-3.38,3.12-7.95,10.67-3.64,14.75a6.62,6.62,0,0,0,.87-.5.88.88,0,0,0,.19-1c0,.13-.88.35-.86.5a.88.88,0,0,1-.2,1l.87-.5c-2.88-2.73-1.49-7.26.16-10.29.85-1.57,7.6-10,8.71-5.4,0-.09.89-.4.86-.5Z" transform="translate(-0.13)"/><path class="cls-1" d="M319.05,125.71a.54.54,0,0,1-.19-.74l-.85.49a.52.52,0,0,1,.68.15l.87-.5a1,1,0,0,1-.41.08l-.14,0c-.15,0-.17,0-.07-.1s.5-.53.64-.67c-.22.23-.65.26-.87.5s-.59.47-.64.67-.08.08,0,.08a.45.45,0,0,0,.2,0,.94.94,0,0,0,.41-.08c.09,0,.85-.52.87-.5-.36-.42-.77-.1-1.13.11a1.52,1.52,0,0,0-.43.25.53.53,0,0,0,.18.74c.12.09.76-.57.87-.5Z" transform="translate(-0.13)"/><path class="cls-1" d="M330.65,112.78a11.32,11.32,0,0,0-4.68,2,9.35,9.35,0,0,0-2.61,2.67c-.33.53-1.86,3.17-.54,3.34.27,0,.61-.53.87-.5-1.51-.2.6-3.48,1-4a7.57,7.57,0,0,1,5.08-2.94c.31,0,.56-.46.86-.5Z" transform="translate(-0.13)"/><path class="cls-1" d="M322.15,124.65a.82.82,0,0,1,.43-.82l-.85.49c.22-.1.4-.15.48.12a.55.55,0,0,1-.17.55l.81-.47a.54.54,0,0,1-.52,0c-.18-.12-.14-.15-.07-.33a6.55,6.55,0,0,1,.66-1.07c-.15.24-.71.24-.87.5a6.24,6.24,0,0,0-.65,1.07c-.12.09-.13.17,0,.25a.46.46,0,0,0,.2.13.6.6,0,0,0,.35,0,3,3,0,0,0,.55-.31c.18-.11.43-.2.54-.39s.08-.64-.25-.6a2.1,2.1,0,0,0-.56.28c-.46.26-1,.5-.93,1.12,0-.13.88-.35.87-.5Z" transform="translate(-0.13)"/></g></g></svg>